<?xml version="1.0" encoding="UTF-8"?>
<svg xmlns="http://www.w3.org/2000/svg" xmlns:xlink="http://www.w3.org/1999/xlink" width="64px" height="64px" viewBox="0 0 64 64" version="1.1">
<g id="surface1">
<path style=" stroke:none;fill-rule:nonzero;fill:rgb(95.686275%,69.411767%,69.803923%);fill-opacity:1;" d="M 15.085938 34.285156 C 15.085938 46.65625 23.066406 56.6875 32.914062 56.6875 C 42.761719 56.6875 50.742188 46.65625 50.742188 34.285156 C 50.742188 21.914062 42.761719 11.882812 32.914062 11.882812 C 23.066406 11.882812 15.085938 21.914062 15.085938 34.285156 Z M 15.085938 34.285156 "/>
<path style=" stroke:none;fill-rule:nonzero;fill:rgb(84.313726%,15.686275%,13.333334%);fill-opacity:1;" d="M 3.65625 32.914062 C 2.742188 32.914062 2.285156 32 2.285156 31.085938 C 2.285156 28.800781 3.199219 23.769531 6.398438 18.285156 C 6.855469 17.371094 7.769531 17.371094 8.6875 17.828125 C 9.601562 18.285156 10.058594 19.65625 9.144531 20.113281 C 6.398438 25.601562 5.484375 29.714844 5.484375 31.542969 C 5.484375 32.457031 4.570312 32.914062 3.65625 32.914062 Z M 10.058594 17.828125 C 9.601562 17.828125 9.144531 17.828125 9.144531 17.371094 C 8.230469 16.914062 8.230469 15.542969 8.6875 15.085938 C 11.886719 10.972656 16 7.769531 20.113281 5.484375 C 21.027344 5.027344 21.941406 5.484375 22.398438 6.398438 C 22.855469 7.3125 22.398438 8.230469 21.484375 8.6875 C 17.828125 10.515625 14.628906 13.257812 11.429688 16.914062 C 11.429688 17.371094 10.972656 17.828125 10.058594 17.828125 Z M 26.515625 6.855469 C 25.601562 6.855469 25.144531 6.398438 24.6875 5.484375 C 24.6875 4.570312 25.144531 3.65625 26.058594 3.199219 C 28.800781 2.285156 32 2.285156 35.199219 2.285156 C 36.570312 2.742188 37.027344 3.65625 37.027344 4.570312 C 37.027344 5.484375 36.113281 6.398438 35.199219 6.398438 C 32.457031 5.941406 29.714844 5.941406 26.515625 6.855469 C 26.972656 6.855469 26.972656 6.855469 26.515625 6.855469 Z M 48.457031 10.058594 C 48 10.058594 48 10.058594 47.542969 9.601562 C 44.800781 7.769531 41.601562 6.855469 38.398438 5.941406 C 37.941406 6.398438 37.027344 5.484375 37.484375 4.570312 C 37.484375 3.65625 38.398438 3.199219 39.3125 3.199219 C 42.972656 4.113281 46.171875 5.027344 49.371094 7.3125 C 50.285156 7.769531 50.285156 8.6875 49.828125 9.601562 C 49.828125 10.058594 48.914062 10.058594 48.457031 10.058594 Z M 62.171875 37.484375 C 61.257812 37.484375 60.34375 36.570312 60.34375 35.65625 C 59.886719 25.601562 56.6875 17.828125 51.199219 12.800781 C 50.285156 12.34375 50.285156 10.972656 51.199219 10.515625 C 51.65625 9.601562 53.027344 9.601562 53.484375 10.515625 C 59.429688 16 63.085938 24.6875 63.542969 35.65625 C 64 36.570312 63.085938 37.484375 62.171875 37.484375 Z M 62.171875 37.484375 "/>
<path style=" stroke:none;fill-rule:nonzero;fill:rgb(84.313726%,15.686275%,13.333334%);fill-opacity:1;" d="M 51.65625 57.144531 L 51.199219 57.144531 C 50.285156 56.6875 49.828125 55.769531 50.285156 54.855469 C 50.285156 54.855469 51.199219 52.113281 52.570312 46.628906 C 53.941406 41.144531 53.027344 33.828125 53.027344 33.828125 C 53.027344 26.058594 48.457031 18.742188 41.144531 15.542969 C 40.230469 15.085938 39.769531 14.171875 40.230469 13.257812 C 40.6875 12.34375 41.601562 11.886719 42.515625 12.34375 C 50.742188 16 56.230469 24.230469 56.230469 33.371094 C 56.230469 33.371094 57.144531 41.144531 55.769531 47.085938 C 54.398438 53.027344 53.027344 55.769531 53.027344 55.769531 C 52.570312 56.6875 52.113281 57.144531 51.65625 57.144531 Z M 21.027344 17.371094 C 20.570312 17.371094 20.113281 16.914062 19.65625 16.457031 C 19.199219 16 19.65625 15.085938 20.113281 14.628906 C 25.144531 10.972656 31.085938 9.601562 37.027344 10.972656 C 37.941406 10.972656 38.398438 11.886719 38.398438 12.800781 C 38.398438 13.714844 37.484375 14.171875 36.570312 14.171875 C 31.542969 13.257812 26.515625 14.171875 22.398438 17.371094 Z M 4.113281 43.429688 C 3.199219 43.429688 2.742188 42.972656 2.285156 42.058594 C 2.285156 41.144531 2.742188 40.230469 3.65625 40.230469 C 3.65625 40.230469 5.484375 39.769531 7.3125 37.941406 C 8.6875 36.570312 10.058594 34.285156 10.515625 33.371094 C 10.515625 28.34375 12.34375 23.3125 15.542969 19.199219 C 16 18.285156 17.371094 17.828125 17.828125 18.742188 C 18.742188 19.199219 18.742188 20.113281 18.285156 21.027344 C 15.542969 24.6875 13.714844 28.800781 13.714844 33.371094 L 13.714844 33.828125 C 13.714844 34.285156 12.34375 38.398438 9.601562 40.230469 C 6.855469 42.515625 4.570312 43.429688 4.570312 43.429688 Z M 4.113281 43.429688 "/>
<path style=" stroke:none;fill-rule:nonzero;fill:rgb(84.313726%,15.686275%,13.333334%);fill-opacity:1;" d="M 7.769531 49.371094 C 7.3125 49.371094 6.855469 48.914062 6.398438 48.457031 C 5.941406 47.542969 5.941406 46.628906 6.855469 46.171875 C 6.855469 46.171875 12.800781 42.058594 14.628906 40.6875 C 15.085938 40.230469 16.457031 37.941406 16.914062 35.65625 C 16.914062 32 19.199219 25.601562 21.484375 22.855469 C 21.484375 22.855469 22.398438 21.484375 24.6875 20.113281 C 26.515625 19.199219 28.800781 18.285156 31.085938 18.285156 C 32 17.828125 32.914062 18.285156 32.914062 19.199219 C 32.914062 20.113281 32.457031 21.027344 31.542969 21.027344 C 29.714844 21.027344 28.34375 21.484375 26.972656 22.398438 C 25.144531 23.769531 24.230469 24.6875 24.230469 24.6875 C 22.398438 26.972656 20.113281 32.914062 20.113281 36.113281 L 20.113281 36.570312 C 19.65625 37.941406 18.285156 42.058594 16.457031 43.886719 C 15.085938 44.800781 9.144531 48.914062 8.6875 49.371094 Z M 43.886719 27.429688 C 43.429688 27.429688 42.972656 27.429688 42.515625 26.972656 C 41.144531 24.6875 38.855469 22.855469 36.113281 21.941406 C 35.199219 21.484375 34.742188 20.570312 35.199219 19.65625 C 35.199219 18.742188 36.570312 18.285156 37.484375 18.742188 C 40.6875 20.113281 43.886719 22.398438 45.714844 24.6875 C 46.171875 25.601562 46.171875 26.515625 45.257812 26.972656 C 44.800781 27.429688 44.34375 27.429688 43.886719 27.429688 Z M 45.257812 44.800781 C 45.257812 44.800781 44.800781 44.800781 45.257812 44.800781 C 43.886719 44.34375 43.429688 43.429688 43.429688 42.515625 C 43.886719 41.144531 43.886719 40.230469 44.34375 39.769531 C 44.800781 37.941406 44.800781 33.828125 44.800781 33.828125 C 44.800781 32.914062 44.800781 31.542969 44.34375 30.628906 C 44.34375 29.714844 44.800781 28.800781 45.714844 28.34375 C 46.628906 27.886719 47.542969 28.800781 48 29.714844 C 48.457031 31.085938 48.457031 32.457031 48.457031 33.828125 C 48.457031 33.828125 48 38.398438 48 40.230469 C 48 40.6875 47.542969 41.601562 47.542969 42.972656 C 46.628906 43.886719 46.171875 44.800781 45.257812 44.800781 Z M 45.257812 44.800781 "/>
<path style=" stroke:none;fill-rule:nonzero;fill:rgb(84.313726%,15.686275%,13.333334%);fill-opacity:1;" d="M 41.601562 58.058594 L 41.144531 58.058594 C 40.230469 57.601562 39.769531 56.6875 40.230469 55.769531 C 40.230469 55.769531 41.601562 50.742188 42.972656 46.171875 C 42.972656 45.257812 44.34375 44.800781 45.257812 44.800781 C 46.171875 44.800781 46.628906 45.714844 46.628906 47.085938 C 45.714844 51.65625 43.886719 56.6875 43.886719 56.6875 C 42.972656 57.601562 42.515625 58.058594 41.601562 58.058594 Z M 41.601562 58.058594 "/>
<path style=" stroke:none;fill-rule:nonzero;fill:rgb(84.313726%,15.686275%,13.333334%);fill-opacity:1;" d="M 34.285156 58.515625 C 32.914062 58.058594 32.457031 57.144531 32.457031 56.230469 L 37.484375 35.65625 C 38.398438 32.914062 36.570312 30.171875 33.828125 29.257812 C 31.085938 28.800781 27.886719 30.628906 27.429688 33.371094 L 22.855469 46.628906 L 13.714844 53.941406 C 12.800781 54.855469 11.429688 54.855469 10.972656 53.941406 C 10.515625 53.027344 10.515625 52.113281 11.429688 51.65625 L 20.113281 44.800781 L 24.230469 32.914062 C 24.230469 30.628906 26.058594 28.34375 27.886719 27.429688 C 29.714844 26.058594 32.457031 25.601562 34.742188 26.515625 C 39.3125 27.429688 42.515625 32 41.144531 37.027344 L 36.113281 57.601562 C 36.113281 58.058594 35.199219 58.515625 34.285156 58.515625 Z M 34.285156 58.515625 "/>
<path style=" stroke:none;fill-rule:nonzero;fill:rgb(84.313726%,15.686275%,13.333334%);fill-opacity:1;" d="M 24.230469 58.972656 L 23.3125 58.972656 C 22.398438 58.515625 22.398438 57.601562 22.855469 56.6875 L 27.886719 47.542969 L 30.628906 34.742188 C 30.628906 33.828125 31.542969 33.371094 32.457031 33.371094 C 33.371094 33.371094 33.828125 34.285156 33.828125 35.199219 L 31.085938 48.914062 L 25.601562 58.515625 C 25.601562 58.515625 24.6875 58.972656 24.230469 58.972656 Z M 24.230469 58.972656 "/>
</g>
</svg>
