<?xml version="1.0" encoding="UTF-8"?>
<svg xmlns="http://www.w3.org/2000/svg" xmlns:xlink="http://www.w3.org/1999/xlink" width="64px" height="64px" viewBox="0 0 64 64" version="1.1">
<g id="surface1">
<path style=" stroke:none;fill-rule:nonzero;fill:rgb(4.705882%,57.254905%,94.901961%);fill-opacity:1;" d="M 21.824219 16.832031 L 29.285156 26.183594 L 29.832031 26.859375 L 29.832031 27.746094 L 29.914062 36.675781 L 29.914062 37.605469 L 29.324219 38.320312 L 20.8125 48.8125 C 20.644531 49.023438 20.394531 49.738281 20.433594 50.035156 L 20.433594 50.203125 L 20.605469 52.730469 L 15.546875 53.066406 L 15.378906 50.539062 L 15.378906 50.371094 C 15.292969 48.8125 15.882812 46.832031 16.894531 45.609375 L 25.40625 35.117188 L 24.859375 36.71875 L 24.773438 27.785156 L 25.324219 29.34375 L 16.769531 18.644531 L 15.335938 16.875 L 21.824219 16.875 Z M 44.113281 47.167969 L 36.65625 37.816406 L 36.109375 37.140625 L 36.109375 36.253906 L 36.023438 27.324219 L 36.023438 26.394531 L 36.613281 25.679688 L 45.125 15.1875 C 45.292969 14.976562 45.546875 14.261719 45.503906 13.964844 L 45.503906 13.796875 L 45.335938 11.269531 L 50.394531 10.933594 L 50.5625 13.460938 L 50.5625 13.628906 C 50.644531 15.1875 50.054688 17.167969 49.042969 18.390625 L 40.535156 28.882812 L 41.082031 27.28125 L 41.164062 36.214844 L 40.617188 34.65625 L 49.171875 45.355469 L 50.605469 47.125 L 44.113281 47.125 Z M 44.113281 47.167969 "/>
<path style=" stroke:none;fill-rule:nonzero;fill:rgb(98.823529%,51.372552%,3.921569%);fill-opacity:1;" d="M 33.285156 41.691406 L 37.921875 47.589844 L 28.652344 47.589844 Z M 33.285156 41.691406 "/>
<path style=" stroke:none;fill-rule:nonzero;fill:rgb(38.039216%,71.372551%,94.901961%);fill-opacity:1;" d="M 33.285156 22.308594 L 37.921875 16.410156 L 28.652344 16.410156 Z M 33.285156 22.308594 "/>
<path style=" stroke:none;fill-rule:nonzero;fill:rgb(4.705882%,57.254905%,94.901961%);fill-opacity:1;" d="M 14.367188 6.296875 L 56.921875 6.296875 C 56.921875 6.296875 56.628906 11.355469 50.605469 11.355469 L 9.3125 11.355469 C 9.3125 11.355469 9.734375 6.296875 14.367188 6.296875 Z M 14.367188 52.222656 L 56.921875 52.222656 C 56.921875 52.222656 56.628906 57.28125 50.605469 57.28125 L 9.3125 57.28125 C 9.3125 57.28125 9.734375 52.222656 14.367188 52.222656 Z M 14.367188 52.222656 "/>
</g>
</svg>
